<svg xmlns="http://www.w3.org/2000/svg" viewBox="0 0 100 100" width="100" height="100">
  <!-- Moitié supérieure rouge -->
  <path d="M50,5 A45,45 0 0,1 95,50 L50,50 Z" fill="#e74c3c" />
  <path d="M50,5 A45,45 0 0,1 95,50 L50,50 Z" stroke="#c0392b" stroke-width="1" fill="none" />
  
  <!-- Moitié inférieure blanche -->
  <path d="M50,50 L95,50 A45,45 0 0,1 50,95 A45,45 0 0,1 5,50 L50,50" fill="#ecf0f1" />
  <path d="M50,50 L95,50 A45,45 0 0,1 50,95 A45,45 0 0,1 5,50 L50,50" stroke="#bdc3c7" stroke-width="1" fill="none" />
  
  <!-- Cercle extérieur -->
  <circle cx="50" cy="50" r="45" stroke="#2c3e50" stroke-width="3" fill="none" />
  
  <!-- Bande centrale -->
  <rect x="5" y="47" width="90" height="6" fill="#2c3e50" />
  
  <!-- Bouton central -->
  <circle cx="50" cy="50" r="10" fill="#ecf0f1" stroke="#2c3e50" stroke-width="2" />
  <circle cx="50" cy="50" r="6" fill="#bdc3c7" stroke="#2c3e50" stroke-width="1" />
  
  <!-- Reflet -->
  <ellipse cx="30" cy="30" rx="10" ry="5" fill="#ffffff" opacity="0.5" />
</svg> 